# xmcd
#
# Track frame offsets:
#	150
#	18909
#	30639
#	44568
#	57867
#	75351
#	90890
#	106314
#	119898
#	134028
#	151587
#	169226
#	179865
#
# Disc length: 2445 seconds
#
# Revision: 1
# Processed by: cddbd v1.5.2PL0 Copyright (c) Steve Scherf et al.
# Submitted via: audiograbber 1.82.02
#
DISCID=a7098b0d
DTITLE=Brian Letton - My Australia
DYEAR=2002
DGENRE=Country
TTITLE0=My Australia
TTITLE1=I'm In Australia Blue
TTITLE2=You'll Do Me Mate
TTITLE3=Fourty Thousand Reasons
TTITLE4=Our Flag
TTITLE5=Who Would Ask For More
TTITLE6=When We Were Just Kids
TTITLE7=The Fightin' Side Of Me
TTITLE8=Sunsets
TTITLE9=I'm Too Old To Try Something
TTITLE10=Have You Paddled Down The Murray
TTITLE11=My Country
TTITLE12=Reprise
EXTD=
EXTT0=
EXTT1=
EXTT2=
EXTT3=
EXTT4=
EXTT5=
EXTT6=
EXTT7=
EXTT8=
EXTT9=
EXTT10=
EXTT11=
EXTT12=
PLAYORDER=
